<mxfile host="app.diagrams.net" modified="2022-10-27T14:34:17.131Z" agent="5.0 (Windows NT 10.0; Win64; x64) AppleWebKit/537.36 (KHTML, like Gecko) Chrome/106.0.0.0 Safari/537.36" etag="YDurq81bfGtVLRkyROVF" version="20.5.1" type="github">
  <diagram id="C5RBs43oDa-KdzZeNtuy" name="Page-1">
    <mxGraphModel dx="593" dy="313" grid="1" gridSize="10" guides="1" tooltips="1" connect="1" arrows="1" fold="1" page="1" pageScale="1" pageWidth="827" pageHeight="1169" math="0" shadow="0">
      <root>
        <mxCell id="WIyWlLk6GJQsqaUBKTNV-0" />
        <mxCell id="WIyWlLk6GJQsqaUBKTNV-1" parent="WIyWlLk6GJQsqaUBKTNV-0" />
        <mxCell id="tBmFyjRmbLgNTtnwrEOK-0" value="Empleado_regular" style="swimlane;fontStyle=1;align=center;verticalAlign=top;childLayout=stackLayout;horizontal=1;startSize=26;horizontalStack=0;resizeParent=1;resizeParentMax=0;resizeLast=0;collapsible=1;marginBottom=0;" vertex="1" parent="WIyWlLk6GJQsqaUBKTNV-1">
          <mxGeometry x="30" y="100" width="210" height="190" as="geometry" />
        </mxCell>
        <mxCell id="tBmFyjRmbLgNTtnwrEOK-1" value="+ nombre: string&#xa;+ identificacion: string&#xa;+ puesto: string&#xa;+ salarioBase: float&#xa;" style="text;strokeColor=none;fillColor=none;align=left;verticalAlign=top;spacingLeft=4;spacingRight=4;overflow=hidden;rotatable=0;points=[[0,0.5],[1,0.5]];portConstraint=eastwest;" vertex="1" parent="tBmFyjRmbLgNTtnwrEOK-0">
          <mxGeometry y="26" width="210" height="94" as="geometry" />
        </mxCell>
        <mxCell id="tBmFyjRmbLgNTtnwrEOK-2" value="" style="line;strokeWidth=1;fillColor=none;align=left;verticalAlign=middle;spacingTop=-1;spacingLeft=3;spacingRight=3;rotatable=0;labelPosition=right;points=[];portConstraint=eastwest;strokeColor=inherit;" vertex="1" parent="tBmFyjRmbLgNTtnwrEOK-0">
          <mxGeometry y="120" width="210" height="8" as="geometry" />
        </mxCell>
        <mxCell id="tBmFyjRmbLgNTtnwrEOK-3" value="+ calcularSalario(int diasLaborados,&#xa; int horasExtras) : float salarioTotal" style="text;strokeColor=none;fillColor=none;align=left;verticalAlign=top;spacingLeft=4;spacingRight=4;overflow=hidden;rotatable=0;points=[[0,0.5],[1,0.5]];portConstraint=eastwest;" vertex="1" parent="tBmFyjRmbLgNTtnwrEOK-0">
          <mxGeometry y="128" width="210" height="62" as="geometry" />
        </mxCell>
        <mxCell id="tBmFyjRmbLgNTtnwrEOK-11" value="Miselaneo" style="swimlane;fontStyle=1;align=center;verticalAlign=top;childLayout=stackLayout;horizontal=1;startSize=26;horizontalStack=0;resizeParent=1;resizeParentMax=0;resizeLast=0;collapsible=1;marginBottom=0;" vertex="1" parent="WIyWlLk6GJQsqaUBKTNV-1">
          <mxGeometry x="250" y="100" width="200" height="190" as="geometry" />
        </mxCell>
        <mxCell id="tBmFyjRmbLgNTtnwrEOK-12" value="+ nombre: string&#xa;+ identificacion: string&#xa;+ puesto: string&#xa;+ salarioBase: float&#xa;" style="text;strokeColor=none;fillColor=none;align=left;verticalAlign=top;spacingLeft=4;spacingRight=4;overflow=hidden;rotatable=0;points=[[0,0.5],[1,0.5]];portConstraint=eastwest;fontStyle=0" vertex="1" parent="tBmFyjRmbLgNTtnwrEOK-11">
          <mxGeometry y="26" width="200" height="94" as="geometry" />
        </mxCell>
        <mxCell id="tBmFyjRmbLgNTtnwrEOK-13" value="" style="line;strokeWidth=1;fillColor=none;align=left;verticalAlign=middle;spacingTop=-1;spacingLeft=3;spacingRight=3;rotatable=0;labelPosition=right;points=[];portConstraint=eastwest;strokeColor=inherit;" vertex="1" parent="tBmFyjRmbLgNTtnwrEOK-11">
          <mxGeometry y="120" width="200" height="8" as="geometry" />
        </mxCell>
        <mxCell id="tBmFyjRmbLgNTtnwrEOK-14" value="+ calcularSalario(int diasLaborados,&#xa; int horasExtras) : float salarioTotal" style="text;strokeColor=none;fillColor=none;align=left;verticalAlign=top;spacingLeft=4;spacingRight=4;overflow=hidden;rotatable=0;points=[[0,0.5],[1,0.5]];portConstraint=eastwest;" vertex="1" parent="tBmFyjRmbLgNTtnwrEOK-11">
          <mxGeometry y="128" width="200" height="62" as="geometry" />
        </mxCell>
        <mxCell id="tBmFyjRmbLgNTtnwrEOK-31" value="Resepcionista" style="swimlane;fontStyle=1;align=center;verticalAlign=top;childLayout=stackLayout;horizontal=1;startSize=26;horizontalStack=0;resizeParent=1;resizeParentMax=0;resizeLast=0;collapsible=1;marginBottom=0;" vertex="1" parent="WIyWlLk6GJQsqaUBKTNV-1">
          <mxGeometry x="460" y="100" width="200" height="190" as="geometry" />
        </mxCell>
        <mxCell id="tBmFyjRmbLgNTtnwrEOK-32" value="+ nombre: string&#xa;+ identificacion: string&#xa;+ puesto: string&#xa;+ salarioBase: float&#xa;" style="text;strokeColor=none;fillColor=none;align=left;verticalAlign=top;spacingLeft=4;spacingRight=4;overflow=hidden;rotatable=0;points=[[0,0.5],[1,0.5]];portConstraint=eastwest;fontStyle=0" vertex="1" parent="tBmFyjRmbLgNTtnwrEOK-31">
          <mxGeometry y="26" width="200" height="94" as="geometry" />
        </mxCell>
        <mxCell id="tBmFyjRmbLgNTtnwrEOK-33" value="" style="line;strokeWidth=1;fillColor=none;align=left;verticalAlign=middle;spacingTop=-1;spacingLeft=3;spacingRight=3;rotatable=0;labelPosition=right;points=[];portConstraint=eastwest;strokeColor=inherit;" vertex="1" parent="tBmFyjRmbLgNTtnwrEOK-31">
          <mxGeometry y="120" width="200" height="8" as="geometry" />
        </mxCell>
        <mxCell id="tBmFyjRmbLgNTtnwrEOK-34" value="+ calcularSalario(int diasLaborados,&#xa; int horasExtras) : float salarioTotal" style="text;strokeColor=none;fillColor=none;align=left;verticalAlign=top;spacingLeft=4;spacingRight=4;overflow=hidden;rotatable=0;points=[[0,0.5],[1,0.5]];portConstraint=eastwest;" vertex="1" parent="tBmFyjRmbLgNTtnwrEOK-31">
          <mxGeometry y="128" width="200" height="62" as="geometry" />
        </mxCell>
        <mxCell id="tBmFyjRmbLgNTtnwrEOK-35" value="Transportista" style="swimlane;fontStyle=1;align=center;verticalAlign=top;childLayout=stackLayout;horizontal=1;startSize=26;horizontalStack=0;resizeParent=1;resizeParentMax=0;resizeLast=0;collapsible=1;marginBottom=0;" vertex="1" parent="WIyWlLk6GJQsqaUBKTNV-1">
          <mxGeometry x="30" y="310" width="200" height="190" as="geometry" />
        </mxCell>
        <mxCell id="tBmFyjRmbLgNTtnwrEOK-36" value="+ nombre: string&#xa;+ identificacion: string&#xa;+ puesto: string&#xa;+ salarioBase: float&#xa;" style="text;strokeColor=none;fillColor=none;align=left;verticalAlign=top;spacingLeft=4;spacingRight=4;overflow=hidden;rotatable=0;points=[[0,0.5],[1,0.5]];portConstraint=eastwest;fontStyle=0" vertex="1" parent="tBmFyjRmbLgNTtnwrEOK-35">
          <mxGeometry y="26" width="200" height="94" as="geometry" />
        </mxCell>
        <mxCell id="tBmFyjRmbLgNTtnwrEOK-37" value="" style="line;strokeWidth=1;fillColor=none;align=left;verticalAlign=middle;spacingTop=-1;spacingLeft=3;spacingRight=3;rotatable=0;labelPosition=right;points=[];portConstraint=eastwest;strokeColor=inherit;" vertex="1" parent="tBmFyjRmbLgNTtnwrEOK-35">
          <mxGeometry y="120" width="200" height="8" as="geometry" />
        </mxCell>
        <mxCell id="tBmFyjRmbLgNTtnwrEOK-38" value="+ calcularSalario(int diasLaborados,&#xa; int horasExtras) : float salarioTotal" style="text;strokeColor=none;fillColor=none;align=left;verticalAlign=top;spacingLeft=4;spacingRight=4;overflow=hidden;rotatable=0;points=[[0,0.5],[1,0.5]];portConstraint=eastwest;" vertex="1" parent="tBmFyjRmbLgNTtnwrEOK-35">
          <mxGeometry y="128" width="200" height="62" as="geometry" />
        </mxCell>
      </root>
    </mxGraphModel>
  </diagram>
</mxfile>
